<svg width="154" height="31" viewBox="0 0 154 31" fill="none" xmlns="http://www.w3.org/2000/svg">
<g clip-path="url(#clip0_34_121)">
<path fill-rule="evenodd" clip-rule="evenodd" d="M75.0289 17.0516V0.382797C75.0289 0.158186 74.8018 -0.0125936 74.5509 0.0220571L71.0138 0.513355C70.8127 0.541199 70.6641 0.694653 70.6641 0.874713L70.676 17.7805C70.676 18.58 70.676 23.5165 77.4031 23.6891C77.6365 23.6953 77.8299 23.5295 77.8299 23.3234V20.8001C77.8299 20.6169 77.6764 20.4592 77.471 20.4387C75.0282 20.1906 75.0282 17.4953 75.0282 17.0529L75.0289 17.0516Z" fill="#003DFF"/>
<path d="M133.362 6.49805H129.802C129.574 6.49805 129.389 6.66152 129.389 6.86312V23.3284C129.389 23.53 129.574 23.6935 129.802 23.6935H133.362C133.59 23.6935 133.775 23.53 133.775 23.3284V6.86312C133.775 6.66152 133.59 6.49805 133.362 6.49805Z" fill="#003DFF"/>
<path fill-rule="evenodd" clip-rule="evenodd" d="M129.801 4.43383H133.36C133.588 4.43383 133.773 4.27047 133.773 4.06875V0.382784C133.773 0.158792 133.546 -0.0126064 133.295 0.0220443L129.736 0.513961C129.535 0.541805 129.387 0.694638 129.387 0.874698V4.06875C129.387 4.27047 129.572 4.43383 129.8 4.43383H129.801Z" fill="#003DFF"/>
<path fill-rule="evenodd" clip-rule="evenodd" d="M123.65 17.0516V0.382797C123.65 0.158186 123.423 -0.0125936 123.172 0.0220571L119.635 0.513355C119.434 0.541199 119.285 0.694653 119.285 0.874713L119.297 17.7805C119.297 18.58 119.297 23.5165 126.024 23.6891C126.258 23.6953 126.451 23.5295 126.451 23.3234V20.8001C126.451 20.6169 126.298 20.4592 126.092 20.4387C123.649 20.1906 123.649 17.4953 123.649 17.0529L123.65 17.0516Z" fill="#003DFF"/>
<path fill-rule="evenodd" clip-rule="evenodd" d="M114.392 8.84753C113.611 8.08954 112.651 7.50791 111.533 7.09581C110.417 6.69176 109.202 6.48633 107.883 6.48633C106.567 6.48633 105.349 6.68248 104.244 7.09581C103.151 7.50791 102.191 8.08892 101.387 8.84753C100.583 9.60427 99.9582 10.5101 99.511 11.5719C99.0638 12.6344 98.8633 13.8843 98.8633 15.183C98.8633 16.4818 99.0869 17.4644 99.5327 18.5373C99.9799 19.609 100.594 20.5242 101.387 21.2822C102.178 22.0389 103.127 22.6199 104.233 23.0432C105.338 23.4658 107.045 23.6824 107.906 23.6916C108.764 23.6916 110.484 23.4553 111.6 23.0432C112.716 22.6298 113.665 22.0389 114.458 21.2822C115.25 20.5242 115.864 19.609 116.298 18.5373C116.734 17.4644 116.946 16.4818 116.946 15.183C116.946 13.8843 116.712 12.6344 116.243 11.5719C115.796 10.5095 115.182 9.60427 114.39 8.84753H114.392ZM111.277 18.9798C110.473 19.9543 109.345 20.4462 107.906 20.4462C106.466 20.4462 105.339 19.9636 104.535 18.9798C103.731 18.0052 103.328 16.8754 103.328 15.1929C103.328 13.5291 103.72 12.1523 104.524 11.179C105.327 10.2045 106.455 9.72369 107.894 9.72369C109.334 9.72369 110.461 10.2051 111.265 11.179C112.069 12.1424 112.481 13.5291 112.481 15.1929C112.481 16.8754 112.081 17.9959 111.277 18.9798H111.277Z" fill="#003DFF"/>
<path fill-rule="evenodd" clip-rule="evenodd" d="M62.6946 6.49805H59.2368C55.847 6.49805 52.8644 8.07465 51.1232 10.4643C50.1054 11.8615 49.5117 13.5352 49.5117 15.3358C49.5117 18.1135 50.9227 20.5904 53.1279 22.2103C53.3333 22.3712 53.552 22.5184 53.7805 22.6521C54.682 23.1774 55.7509 23.4855 56.9012 23.4855C56.9874 23.4855 57.0736 23.4837 57.1591 23.48C57.1844 23.4787 57.2089 23.4769 57.2341 23.4757C57.2951 23.4726 57.3568 23.4688 57.4178 23.4633C57.4416 23.4614 57.4655 23.4583 57.4893 23.4559C57.5531 23.4497 57.6169 23.4429 57.6807 23.4348C57.6954 23.433 57.7101 23.4305 57.7248 23.4286C60.0303 23.1149 62.0399 21.5216 62.6946 19.5422V23.1205C62.6946 23.3222 62.8796 23.4855 63.1082 23.4855H66.6424C66.8709 23.4855 67.0559 23.3222 67.0559 23.1205V6.86312C67.0559 6.6614 66.8709 6.49805 66.6424 6.49805H62.6946ZM62.6946 19.3015C61.8394 19.9301 60.734 20.1665 59.5515 20.237C59.5403 20.2377 59.5284 20.2389 59.5172 20.2395C59.4387 20.2439 59.3601 20.2457 59.2816 20.2457C56.3208 20.2457 53.8759 18.025 53.8759 15.3346C53.8759 14.7004 54.0133 14.0964 54.2558 13.5414C55.0423 11.7396 56.9734 10.4637 59.2368 10.4637H62.6946V19.3015Z" fill="#003DFF"/>
<path fill-rule="evenodd" clip-rule="evenodd" d="M149.581 6.49805H146.123C142.734 6.49805 139.751 8.07465 138.01 10.4643C136.992 11.8615 136.398 13.5352 136.398 15.3358C136.398 18.1135 137.809 20.5904 140.015 22.2103C140.22 22.3712 140.439 22.5184 140.667 22.6521C141.569 23.1774 142.638 23.4855 143.788 23.4855C143.874 23.4855 143.96 23.4837 144.046 23.48C144.071 23.4787 144.096 23.4769 144.121 23.4757C144.182 23.4726 144.244 23.4688 144.305 23.4633C144.328 23.4614 144.352 23.4583 144.376 23.4559C144.44 23.4497 144.504 23.4429 144.567 23.4348C144.582 23.433 144.597 23.4305 144.612 23.4286C146.917 23.1149 148.927 21.5216 149.581 19.5422V23.1205C149.581 23.3222 149.766 23.4855 149.995 23.4855H153.529C153.758 23.4855 153.943 23.3222 153.943 23.1205V6.86312C153.943 6.6614 153.758 6.49805 153.529 6.49805H149.581ZM149.581 19.3015C148.726 19.9301 147.621 20.1665 146.438 20.237C146.427 20.2377 146.415 20.2389 146.404 20.2395C146.325 20.2439 146.247 20.2457 146.168 20.2457C143.208 20.2457 140.763 18.025 140.763 15.3346C140.763 14.7004 140.9 14.0964 141.143 13.5414C141.929 11.7396 143.86 10.4637 146.123 10.4637H149.581V19.3015Z" fill="#003DFF"/>
<path fill-rule="evenodd" clip-rule="evenodd" d="M92.1087 6.49805H88.6508C85.261 6.49805 82.2785 8.07465 80.5373 10.4643C79.7109 11.5991 79.1634 12.9171 78.9875 14.3371C78.9468 14.6651 78.9258 14.998 78.9258 15.3358C78.9258 15.6737 78.9475 16.0257 78.991 16.3624C79.291 18.7192 80.613 20.7933 82.542 22.2109C82.7474 22.3718 82.9661 22.519 83.1946 22.6527C84.096 23.178 85.165 23.4862 86.3153 23.4862C87.5763 23.4862 88.7413 23.1192 89.6911 22.498C90.8329 21.7815 91.7154 20.7321 92.108 19.5434V22.6533H92.1003V23.3389C92.1003 24.6903 91.7 25.7069 90.8848 26.3931C90.071 27.0787 88.709 27.4221 86.8017 27.4221C86.0223 27.4221 84.7837 27.3856 83.5353 27.273C83.3369 27.2551 83.1525 27.3658 83.0958 27.5341L82.1999 30.2016C82.1284 30.4157 82.289 30.636 82.5385 30.6675C84.047 30.8581 85.519 30.9571 86.3692 30.9571C89.7976 30.9571 92.3386 30.2919 94.0019 28.9641C95.5076 27.7631 96.3256 25.9389 96.4693 23.4868V6.86435C96.4693 6.66264 96.2843 6.49928 96.0557 6.49928H92.108L92.1087 6.49805ZM92.1087 10.4643C92.1087 10.4643 92.1542 19.0732 92.1087 19.3349C91.2619 19.9394 90.2084 20.1758 89.0602 20.2445C89.049 20.2451 89.0371 20.2463 89.0259 20.2469C88.9473 20.2513 88.8688 20.2531 88.7903 20.2531C88.6978 20.2531 88.606 20.2513 88.5142 20.2469C85.6816 20.1164 83.2906 17.9414 83.2906 15.3352C83.2906 14.701 83.428 14.0971 83.6706 13.542C84.457 11.7402 86.3882 10.4643 88.6515 10.4643H92.1094H92.1087Z" fill="#003DFF"/>
<path d="M17.5117 0.0168637C7.94155 0.0168637 0.139935 6.8282 0.00184686 15.2477C-0.138344 23.7984 7.72075 30.8838 17.4087 30.9333C20.4003 30.9488 23.282 30.3028 25.8412 29.0752C26.0907 28.9558 26.1292 28.6526 25.9169 28.4867L24.278 27.2047C23.9451 26.9442 23.4712 26.8705 23.0612 27.024C21.2751 27.6947 19.3342 28.0375 17.3337 28.0159C9.50538 27.9311 3.18069 22.1816 3.30545 15.2718C3.42882 8.44936 9.75422 2.93309 17.5117 2.93309H31.7194V25.2252L23.6584 18.9027C23.3976 18.6979 22.9981 18.7381 22.7878 18.9838C21.4938 20.496 19.3861 21.4366 17.0449 21.2942C13.7973 21.0962 11.1659 18.7883 10.9227 15.9228C10.6318 12.5047 13.7006 9.64109 17.5117 9.64109C20.959 9.64109 23.7979 11.9831 24.0944 14.9594C24.121 15.2242 24.2563 15.4711 24.4813 15.6474L26.5807 17.2902C26.819 17.4765 27.1968 17.3626 27.2557 17.086C27.4071 16.3714 27.4604 15.627 27.4008 14.8634C27.0629 10.5111 23.0689 7.0095 18.1363 6.74157C12.4809 6.43405 7.75299 10.3391 7.60299 15.2341C7.45649 20.0047 11.8844 24.117 17.2895 24.2222C19.5459 24.2662 21.6375 23.64 23.3275 22.5547L33.8601 30.7966C34.3115 31.1499 35.0244 30.8671 35.0244 30.3344V0.602211C35.0244 0.277979 34.7272 0.015625 34.3599 0.015625H17.5117V0.0168637Z" fill="#003DFF"/>
</g>
<defs>
<clipPath id="clip0_34_121">
<rect width="154" height="31" fill="white"/>
</clipPath>
</defs>
</svg>
