<svg width="154" height="31" viewBox="0 0 154 31" fill="none" xmlns="http://www.w3.org/2000/svg">
<g clip-path="url(#clip0_34_114)">
<path d="M6.64121 28.1327C6.56228 28.1045 6.42433 28.0365 6.33466 27.9815C6.13538 27.8594 3.37103 25.1929 3.18739 24.9456C2.94355 24.6174 2.86531 24.3401 2.93837 24.063C2.99706 23.8405 3.11018 23.6757 3.35983 23.4492C3.5837 23.2461 3.59126 23.2412 6.25808 21.5791C9.23942 19.7209 9.67027 19.4722 10.0865 19.3696C10.3255 19.3106 10.6171 19.3281 10.8007 19.4124C10.9906 19.4996 11.8365 20.321 11.9261 20.5052C12.0052 20.6679 12.0298 20.9506 11.9822 21.1491C11.8803 21.5736 11.6776 21.9071 9.76233 24.8003C9.19553 25.6566 8.61463 26.5399 8.47144 26.7632C7.90939 27.64 7.65034 27.9445 7.34206 28.0911C7.134 28.1899 6.84897 28.2069 6.64121 28.1327ZM21.2156 11.6191C21.0179 11.5528 20.8222 11.3993 20.4162 10.9922C20.188 10.7633 20.0459 10.5965 19.9978 10.5009C19.9093 10.3249 19.8788 10.0782 19.9216 9.88439C20.018 9.44753 20.2099 9.12896 22.0835 6.2951C22.7135 5.34208 23.3728 4.33908 23.5485 4.06621C23.7242 3.79333 23.9464 3.47449 24.0423 3.35767C24.5767 2.70665 25.1211 2.64503 25.7769 3.16131C25.8919 3.25181 26.5826 3.90865 27.3117 4.62096C28.669 5.94683 28.8214 6.11589 28.9423 6.42982C29.0236 6.64099 29.0129 6.90952 28.9156 7.10281C28.752 7.42769 28.4478 7.68202 27.5976 8.20483C27.3243 8.3729 26.3991 8.94861 25.5416 9.48419C23.2196 10.9344 22.523 11.3525 22.1669 11.5093C21.8067 11.668 21.4751 11.7063 21.2156 11.6191Z" fill="#D437FD"/>
<path d="M13.8927 30.9693C13.2982 30.8851 12.9664 30.5904 12.9012 30.0886C12.8623 29.7891 12.9163 29.4322 13.1669 28.3326C13.2958 27.7667 13.5028 26.8469 13.6268 26.2885C14.4265 22.6881 14.5334 22.3325 14.9169 21.9957C15.1525 21.7888 15.2561 21.7671 16.006 21.7671C16.4809 21.7671 16.6901 21.7772 16.7845 21.8048C16.9698 21.859 17.1739 22.0156 17.302 22.2019C17.5601 22.5774 17.6593 22.949 18.4616 26.5457C18.6543 27.4093 18.8671 28.3475 18.9347 28.6304C19.0022 28.9133 19.0775 29.2484 19.102 29.3749C19.1548 29.6485 19.1624 30.1028 19.1168 30.2704C19.045 30.5347 18.8654 30.7364 18.5945 30.8569C18.2931 30.991 18.1692 30.9977 16.0373 30.9951C14.949 30.9938 13.984 30.9822 13.8927 30.9693ZM10.1989 11.6513C9.75236 11.5685 9.37786 11.3562 6.46453 9.53425C5.69049 9.05017 4.76874 8.47829 4.41621 8.2634C3.42635 7.66003 3.14861 7.43723 2.98163 7.1126C2.82666 6.8113 2.87495 6.45591 3.1187 6.10397C3.2346 5.93662 5.94265 3.29061 6.17191 3.1207C6.67053 2.75116 7.10561 2.72093 7.52119 3.02695C7.76028 3.203 8.00439 3.50086 8.3724 4.06559C8.5404 4.32339 9.13709 5.22878 9.69837 6.07755C11.6207 8.98447 11.8191 9.30672 11.9555 9.74301C12.0379 10.0066 12.0241 10.294 11.9196 10.4907C11.8143 10.6888 10.9551 11.5105 10.77 11.59C10.6341 11.6484 10.3488 11.679 10.1989 11.6513Z" fill="#01F0E5"/>
<path d="M24.5871 28.0756C24.2413 27.9078 24.0092 27.6432 23.4356 26.763C23.2318 26.4503 22.6162 25.5162 22.0675 24.6873C21.0025 23.0782 20.5319 22.3513 20.2739 21.9167C19.8834 21.2589 19.8064 20.8413 20.0078 20.4743C20.1267 20.2576 20.9043 19.5071 21.1096 19.4108C21.3112 19.3164 21.6142 19.3062 21.8811 19.3849C22.3112 19.5118 22.6255 19.695 25.5964 21.55C26.4701 22.0956 27.4028 22.6742 27.669 22.8359C27.9353 22.9976 28.2488 23.1988 28.3657 23.2832C29.0746 23.7943 29.1974 24.3129 28.7517 24.9131C28.593 25.1268 25.8142 27.8192 25.625 27.9426C25.2622 28.1791 24.8967 28.226 24.5871 28.0756ZM0.749911 18.509C0.330643 18.3991 0.102797 18.0913 0.0258417 17.5307C0.00623793 17.3879 -0.000331005 16.6501 0.0065585 15.3648C0.018107 13.2103 0.0125638 13.2793 0.201923 12.9328C0.346445 12.6684 0.572312 12.5284 0.933101 12.4796C1.1992 12.4437 1.53984 12.4789 2.11742 12.6021C2.355 12.6527 3.44604 12.8842 4.54196 13.1163C6.8024 13.5952 7.88481 13.8341 8.24031 13.9326C8.93475 14.1249 9.26747 14.332 9.4299 14.673C9.4848 14.7883 9.48858 14.8415 9.48858 15.5001V16.2041L9.4116 16.3563C9.26544 16.6455 8.93999 16.8661 8.44283 17.0129C7.99699 17.1446 7.15956 17.3312 4.5977 17.8695C3.80833 18.0353 2.8427 18.2421 2.45184 18.3289C2.06099 18.4157 1.65102 18.5001 1.54079 18.5164C1.28122 18.5547 0.911345 18.5513 0.749911 18.509ZM15.2112 9.19558C14.8155 9.05491 14.6025 8.78828 14.4115 8.19432C14.3002 7.84835 14.0235 6.68249 13.5848 4.71105C13.391 3.83994 13.1528 2.78607 13.0554 2.36913C12.8605 1.53438 12.8073 1.18808 12.8355 0.937595C12.8884 0.467642 13.1309 0.20031 13.629 0.063046C13.7953 0.0172232 13.9605 0.0136719 15.9261 0.0136719C18.2262 0.0136719 18.2186 0.0132294 18.5504 0.165551C18.7632 0.263206 18.9541 0.461301 19.0245 0.657491C19.0647 0.769486 19.0749 0.877507 19.0733 1.17786C19.0716 1.5112 19.0593 1.60913 18.9707 1.99009C18.9154 2.22834 18.6757 3.2883 18.4381 4.34555C17.6194 7.9886 17.5543 8.24296 17.3386 8.64714C17.218 8.87306 17.0331 9.06255 16.8458 9.15221C16.7103 9.21707 16.6872 9.21909 16.0098 9.22536C15.4836 9.23022 15.2881 9.22294 15.2112 9.19558Z" fill="#F8005B"/>
<path d="M47.1374 29.4663C45.5619 29.3946 44.2088 29.0842 43.0841 28.5365C42.0206 28.0186 41.2425 27.349 40.5738 26.3761C39.6643 25.0531 39.2515 23.5423 39.1263 21.0781C39.0886 20.3375 39.0879 10.6575 39.1254 9.93578C39.2313 7.90039 39.5057 6.59978 40.0708 5.455C41.283 2.99955 43.5261 1.71553 46.9563 1.51349C49.2956 1.37571 51.4616 1.85408 52.9768 2.84309C53.5016 3.18568 54.0972 3.71609 54.5057 4.20483C55.2071 5.04392 55.6509 6.00518 55.9018 7.22836C56.0761 8.07864 56.1255 8.67036 56.1443 10.1321L56.1598 11.3436H53.7219H51.2841L51.2675 10.5246C51.2438 9.35177 51.1483 8.6644 50.9145 7.9834C50.7216 7.42136 50.4918 7.03582 50.1379 6.68052C49.5276 6.06772 48.7976 5.80989 47.6809 5.81274C46.5076 5.81574 45.767 6.06579 45.1999 6.65033C44.4494 7.42396 44.1048 8.67264 44.0009 10.9954C43.9592 11.9268 43.9805 20.3236 44.0259 20.8602C44.151 22.3395 44.3863 23.2049 44.8402 23.8545C45.2579 24.4525 45.9806 24.8946 46.8518 25.0852C47.1217 25.1442 48.0168 25.1691 48.3279 25.1262C49.6425 24.9449 50.4789 24.2231 50.9232 22.8867C51.145 22.2197 51.2413 21.5174 51.2672 20.3797L51.2844 19.6284H53.7186H56.1528V20.4744C56.1525 21.6854 56.0914 22.5331 55.9422 23.3898C55.7134 24.7045 55.2505 25.7962 54.5697 26.627C53.21 28.2864 51.3127 29.2111 48.8236 29.4273C48.4612 29.4588 47.4739 29.4817 47.1376 29.4663H47.1374ZM68.3452 29.4558C65.7769 29.3015 63.8294 28.4471 62.4873 26.8857C61.3893 25.6082 60.8493 24.2047 60.6272 22.0515C60.5471 21.2745 60.5253 20.8259 60.5089 19.6148L60.4923 18.3965L66.5152 15.2187C69.8278 13.4709 72.5592 12.0259 72.5852 12.0075C72.6288 11.9764 72.6298 11.9175 72.5987 11.1918C72.5374 9.76407 72.4625 9.09538 72.2855 8.39476C71.887 6.81778 71.083 6.04251 69.641 5.84482C69.2774 5.79497 68.4826 5.80294 68.1501 5.85978C67.2404 6.01529 66.5478 6.43415 66.0885 7.10652C65.7162 7.65172 65.5099 8.22761 65.4191 8.97508C65.38 9.29736 65.3235 10.5381 65.3221 11.1067L65.3214 11.3436H62.8794H60.4374L60.4559 10.6871C60.5511 7.30069 60.7578 6.25431 61.6026 4.88159C61.8906 4.41357 62.2029 4.02691 62.6162 3.62659C63.2996 2.96457 64.0232 2.50993 64.9828 2.13971C67.2916 1.24885 70.7814 1.28313 73.0549 2.219C74.2558 2.71335 75.2611 3.48941 75.9081 4.4216C76.8686 5.80544 77.3349 7.45287 77.4726 9.94932C77.5165 10.7437 77.4946 21.5785 77.4481 22.0786C77.2305 24.4211 76.8546 25.556 75.9214 26.6875C74.7873 28.0627 73.0752 28.9818 71.0205 29.3185C70.2403 29.4464 69.1334 29.5032 68.3452 29.4558ZM69.8862 25.2573C71.4606 25.0015 72.2816 23.987 72.5573 21.9567C72.5959 21.6722 72.6051 21.2529 72.615 19.3238C72.6215 18.0618 72.6166 17.0294 72.604 17.0295C72.5914 17.0297 70.9697 17.8861 69.0001 18.9327L65.419 20.8357L65.4099 20.9969C65.3986 21.1953 65.4498 21.8511 65.5043 22.2084C65.6392 23.0914 65.9096 23.7861 66.3096 24.2776C66.916 25.0226 67.8832 25.3709 69.2091 25.3219C69.4083 25.3145 69.713 25.2854 69.8862 25.2573ZM123.601 29.4563C120.584 29.2817 118.426 28.2281 117.194 26.3292C116.385 25.0826 115.99 23.6958 115.787 21.3882C115.742 20.8726 115.72 10.7387 115.762 9.73273C115.873 7.07381 116.256 5.65702 117.194 4.43971C117.571 3.95033 118.248 3.32205 118.801 2.94746C120.331 1.91114 122.515 1.38675 124.785 1.51088C125.672 1.55938 126.257 1.64351 126.981 1.82682C128.842 2.29791 130.245 3.25051 131.259 4.73123C132.105 5.9675 132.491 7.27615 132.681 9.55674C132.697 9.75777 132.718 10.5195 132.726 11.2495L132.742 12.5768L126.717 15.7558C123.403 17.5043 120.674 18.9477 120.652 18.9635C120.618 18.9879 120.616 19.0861 120.64 19.6284C120.711 21.2844 120.783 21.9146 120.989 22.6786C121.388 24.1654 122.173 24.9114 123.547 25.1095C123.924 25.1638 124.72 25.1649 125.058 25.1116C125.944 24.972 126.621 24.5828 127.109 23.9332C127.346 23.6172 127.589 23.0929 127.707 22.641C127.838 22.137 127.912 21.2445 127.913 20.1495V19.6284H130.356H132.799L132.78 20.4593C132.719 23.1262 132.517 24.4167 131.999 25.4559C131.299 26.8604 130.235 27.9134 128.847 28.5748C127.913 29.0196 126.825 29.3025 125.616 29.4151C125.071 29.4658 124.105 29.4855 123.6 29.4563L123.601 29.4563ZM124.281 12.0153L127.851 10.1181L127.839 9.83064C127.736 7.49209 127.042 6.25794 125.577 5.81021C125.178 5.68816 124.853 5.64879 124.249 5.64911C123.863 5.64932 123.61 5.66295 123.426 5.69335C121.813 5.96083 120.985 6.93304 120.711 8.87989C120.633 9.43531 120.613 10.0777 120.612 12.0302C120.612 13.8461 120.615 13.9476 120.661 13.9306C120.688 13.9207 122.317 13.0588 124.281 12.0153ZM145.053 29.4651C142.32 29.3468 140.125 28.4162 138.806 26.8166C138.51 26.4577 138.301 26.1353 138.071 25.6795C137.577 24.7017 137.33 23.639 137.188 21.8755C137.16 21.5291 137.152 20.0944 137.152 15.486C137.152 10.8776 137.16 9.4429 137.188 9.09648C137.386 6.63387 137.845 5.27142 138.886 4.05489C139.981 2.77488 141.74 1.90529 143.826 1.61282C144.456 1.52456 144.783 1.50452 145.582 1.5051C146.641 1.50587 147.352 1.5815 148.218 1.78527C149.743 2.14407 150.999 2.81059 151.95 3.76623C153.217 5.03873 153.731 6.44659 153.921 9.16417C153.972 9.90273 153.973 21.1059 153.921 21.7943C153.715 24.5461 153.231 25.8969 152.001 27.1535C150.439 28.7502 147.917 29.5891 145.052 29.4651H145.053ZM146.242 25.111C147.844 24.8586 148.723 23.7377 148.995 21.6006C149.088 20.8707 149.098 20.1992 149.085 15.0528C149.073 9.90103 149.073 9.86478 148.967 9.13709C148.692 7.24472 147.891 6.19494 146.498 5.89959C145.798 5.7511 144.912 5.78108 144.302 5.97393C144.04 6.05657 143.683 6.2387 143.469 6.39916C142.759 6.92995 142.292 7.92372 142.114 9.286C142.018 10.0189 142.011 10.4989 142.022 15.8244C142.034 21.4328 142.03 21.2526 142.168 22.0438C142.486 23.856 143.355 24.8762 144.779 25.1083C145.099 25.1604 145.919 25.1619 146.242 25.111ZM81.9664 19.4456C81.9762 9.16787 81.9685 9.69615 82.1248 8.50085C82.3425 6.83654 82.7753 5.58213 83.5028 4.5074C84.6447 2.82044 86.5553 1.83795 89.2464 1.55382C89.8548 1.48959 91.1389 1.48875 91.7406 1.55219C93.7278 1.76171 95.2079 2.31254 96.3661 3.27358L96.627 3.49002L96.7267 3.4085C97.5645 2.72421 98.2412 2.34472 99.2014 2.02075C101.293 1.31519 104.24 1.3244 106.364 2.04314C107.99 2.59296 109.139 3.47723 109.942 4.79519C110.647 5.95338 111.04 7.30705 111.205 9.15063C111.297 10.1798 111.304 10.9279 111.304 19.9194V28.9148H108.866H106.429L106.419 20.0548C106.408 11.2412 106.406 11.0279 106.315 9.90871C106.164 8.06997 105.679 6.91074 104.819 6.33297C104.278 5.96941 103.632 5.80947 102.72 5.81336C100.622 5.82233 99.6195 6.8107 99.2676 9.21832C99.2068 9.63423 99.1666 10.1231 99.1254 10.9511C99.1092 11.2757 99.0982 14.9809 99.098 20.2037L99.0975 28.9148H96.6319H94.1663L94.1567 19.9059C94.1497 13.362 94.1381 10.7821 94.1144 10.4773C94.0516 9.66962 94.0201 9.37779 93.9549 8.99905C93.6543 7.25319 93.0079 6.34187 91.8099 5.97527C91.3563 5.83644 90.6683 5.77353 90.11 5.81982C89.2359 5.89227 88.6487 6.11175 88.1734 6.54368C87.4855 7.16891 87.0823 8.25777 86.9475 9.85456C86.8555 10.9442 86.8538 11.1096 86.8437 20.0006L86.8336 28.9148H84.3953H81.957L81.9664 19.4456Z" fill="#090A08"/>
</g>
<defs>
<clipPath id="clip0_34_114">
<rect width="154" height="31" fill="white"/>
</clipPath>
</defs>
</svg>
