<svg width="154" height="31" viewBox="0 0 154 31" fill="none" xmlns="http://www.w3.org/2000/svg">
<path d="M137.69 29.223H15.8973C8.83202 29.223 3.11719 25.4355 3.11719 20.7531C3.11719 16.5117 7.85347 12.9188 14.2142 12.3611L136.007 1.59538C143.679 0.907933 150.49 4.86399 150.49 9.98743V20.7531C150.49 25.4355 144.755 29.223 137.69 29.223Z" fill="#FF5100"/>
<path d="M92.1085 23.6333C89.7798 23.6333 87.8814 22.3881 87.8814 20.8316C87.8814 19.2881 89.7596 18.0299 92.1085 18.0299C93.3613 18.0299 94.4962 18.3931 95.2597 18.9768L98.4692 18.847C97.3538 17.2646 94.9265 16.1621 92.1085 16.1621C88.2333 16.1621 85.082 18.2504 85.082 20.8186C85.082 23.3868 88.2333 25.4751 92.1085 25.4751C94.9265 25.4751 97.3538 24.3726 98.4692 22.7901L95.2597 22.6604C94.4962 23.2701 93.3613 23.6333 92.1085 23.6333Z" fill="white"/>
<path d="M19.0092 22.6864C18.2459 23.2701 17.1108 23.6333 15.8582 23.6333C13.5292 23.6333 11.6307 22.3881 11.6307 20.8316C11.6307 19.2881 13.5096 18.0299 15.8582 18.0299C17.1108 18.0299 18.2459 18.3931 19.0092 18.9768L22.2189 18.847C21.1033 17.2646 18.6764 16.1621 15.8582 16.1621C11.9831 16.1621 8.83203 18.2504 8.83203 20.8186C8.83203 23.3868 11.9831 25.4751 15.8582 25.4751C18.6764 25.4751 21.1033 24.3726 22.2189 22.7901L19.0092 22.6864Z" fill="white"/>
<path d="M121.994 16.2525C120.409 16.2525 118.942 16.6027 117.767 17.1863V9.46875L114.988 9.67631V20.6236C114.988 20.7144 114.969 20.8052 114.969 20.9089C114.969 20.9997 114.969 21.0905 114.988 21.1943V25.4746H117.767V24.6315C118.942 25.2152 120.409 25.5654 121.994 25.5654C125.87 25.5654 129.021 23.4771 129.021 20.9089C129.021 18.3407 125.889 16.2525 121.994 16.2525ZM121.994 23.6976C119.666 23.6976 117.689 22.3876 117.689 20.8441C117.689 19.3006 119.666 18.1073 121.994 18.1073C124.324 18.1073 126.222 19.3654 126.222 20.9089C126.222 22.4525 124.324 23.6976 121.994 23.6976Z" fill="white"/>
<path d="M46.7027 20.844C46.7027 23.4122 43.5516 25.5005 39.6765 25.5005C35.8013 25.5005 32.6504 23.4122 32.6504 20.844C32.6504 18.2758 35.8013 16.1875 39.6765 16.1875C43.5516 16.1875 46.7027 18.2628 46.7027 20.844ZM39.6765 18.0423C37.3475 18.0423 35.4491 19.2875 35.4491 20.844C35.4491 22.3875 37.328 23.6457 39.6765 23.6457C42.0055 23.6457 43.9039 22.4005 43.9039 20.844C43.8843 19.3005 42.0055 18.0423 39.6765 18.0423Z" fill="white"/>
<path d="M80.3082 13.1125V17.1205C79.1338 16.5368 77.6665 16.1866 76.0811 16.1866C72.2059 16.1866 69.0547 18.2749 69.0547 20.843C69.0547 23.4113 72.2059 25.4995 76.0811 25.4995C77.6665 25.4995 79.1143 25.1493 80.3082 24.5657V25.4995H83.1263V12.918L80.3082 13.1125ZM76.0811 23.6318C73.7517 23.6318 71.8534 22.3866 71.8534 20.8301C71.8534 19.2866 73.7323 18.0284 76.0811 18.0284C78.4098 18.0284 80.3866 19.2736 80.3866 20.8301C80.3866 22.3866 78.4098 23.6318 76.0811 23.6318Z" fill="white"/>
<path d="M32.3973 16.1222C32.0842 16.0963 31.7515 16.0703 31.4187 16.0703C29.8922 16.0703 28.4439 16.3946 27.524 16.9912C27.4262 17.0561 27.3087 17.1209 27.2108 17.2117V16.187H24.3926V25.5H27.2108V20.8824C27.2108 20.7527 27.2304 20.4803 27.25 20.3636C27.5045 18.8201 29.2855 17.9381 31.4383 17.9381C31.6732 17.9381 31.8884 17.9511 32.1233 17.977L32.3973 16.1222Z" fill="white"/>
<path d="M109.859 16.1875V21.3758C109.84 21.5833 109.801 21.8168 109.742 21.9724C109.312 22.9582 107.981 23.6846 106.356 23.6846C104.634 23.6846 103.206 22.8545 102.912 21.7779C102.873 21.6482 102.873 21.5185 102.853 21.3758V16.1875H100.035V21.3888C100.035 23.6976 102.853 25.5653 106.337 25.5653C107.629 25.5653 108.959 25.267 109.84 24.6444V25.4616H112.659V16.1875H109.859Z" fill="white"/>
<path d="M55.3344 25.4623L58.0157 18.925L60.7165 25.4623H64.7091L68.5059 16.2012H65.4528L62.6737 23.2313L59.7967 16.2012H56.2542L53.3577 23.2313L50.5981 16.2012H47.5254L51.3222 25.4623H55.3344Z" fill="white"/>
<path d="M143.955 21.3628H144.836C144.855 21.1942 144.874 21.0126 144.874 20.844C144.874 18.2758 141.724 16.1875 137.849 16.1875C133.974 16.1875 130.822 18.2758 130.822 20.844C130.822 23.4122 133.974 25.5005 137.849 25.5005C140.549 25.5005 142.898 24.4888 144.072 23.0101L141.078 22.6339C140.295 23.2436 139.14 23.6457 137.849 23.6457C135.793 23.6457 134.071 22.6728 133.699 21.3758H141.978H143.955V21.3628ZM137.849 18.0423C139.512 18.0423 140.96 18.6779 141.645 19.6118H134.051C134.736 18.6909 136.165 18.0423 137.849 18.0423Z" fill="white"/>
</svg>
