<svg width="154" height="31" viewBox="0 0 154 31" fill="none" xmlns="http://www.w3.org/2000/svg">
<g clip-path="url(#clip0_34_131)">
<path d="M154 0H0V31H154V0Z" fill="#AD1E1F"/>
<path d="M51.0305 11.2258L50.9475 11.1406H49.2935L40.9727 19.702L42.9378 19.7004L45.6111 16.975H54.63L57.3033 19.7004L59.2684 19.702L51.0305 11.2258ZM53.8634 16.1963H46.3787L50.1216 12.3209L53.8634 16.1963Z" fill="white"/>
<path d="M36.9567 11.1426H34.9138L28.5478 18.415L22.1817 11.1426H20.1399L17.9199 19.7029H19.6763L21.5257 12.5359L27.772 19.704L28.5478 19.7029L29.3246 19.704L35.5698 12.5359L37.4203 19.7029H39.1756L36.9567 11.1426Z" fill="white"/>
<path d="M76.3313 11.1843L76.2883 11.1406H74.6344L66.3125 19.702L68.2775 19.7004L70.9509 16.975H79.9698L82.6431 19.7004L84.6082 19.702L76.3313 11.1843ZM79.2042 16.1963H71.7195L75.4623 12.3209L79.2042 16.1963Z" fill="white"/>
<path d="M56.1602 11.1406V11.9193H61.9623V19.7009H63.6152V11.9193H69.4173V11.1406H56.1602Z" fill="white"/>
<path d="M88.0611 18.9222V11.1406H86.4082V19.7009H98.1469V18.9222H88.0611Z" fill="white"/>
<path d="M134.426 11.1417V18.4525L121.917 11.1406L120.035 11.1422V19.702H121.688V12.3907L134.142 19.6738L134.187 19.7004L136.079 19.702V11.1417H134.426Z" fill="white"/>
<path d="M109.959 11.1843L109.916 11.1406H108.262L99.9395 19.702L101.905 19.7004L104.578 16.975H113.597L116.27 19.7004L118.235 19.702L109.959 11.1843ZM112.831 16.1963H105.346L109.089 12.3209L112.831 16.1963Z" fill="white"/>
</g>
<defs>
<clipPath id="clip0_34_131">
<rect width="154" height="31" fill="white"/>
</clipPath>
</defs>
</svg>
