<svg width="154" height="31" viewBox="0 0 154 31" fill="none" xmlns="http://www.w3.org/2000/svg">
<g clip-path="url(#clip0_34_166)">
<path fill-rule="evenodd" clip-rule="evenodd" d="M22.3433 13.4433C22.3433 16.3889 21.6577 18.861 20.1069 21.6321V5.33182C21.4486 7.1323 22.3433 10.3109 22.3433 13.4433ZM24.2819 13.305C24.2819 9.2069 22.7598 4.6677 20.4636 2.07227C19.7789 1.27483 19.3918 0.923454 18.1699 0.000163588V30.7578H20.1069V25.4723C23.2397 20.7561 24.2819 17.757 24.2819 13.305Z" fill="#98002E"/>
<path fill-rule="evenodd" clip-rule="evenodd" d="M31.538 13.4429C31.538 16.3885 30.8499 18.8605 29.2983 21.6317V5.33141C30.6433 7.13189 31.538 10.3104 31.538 13.4429ZM33.9228 30.8496V27.9825C32.2827 27.4505 31.1476 26.1335 30.344 23.7972C32.8198 19.739 33.4784 17.4924 33.4784 13.3532C33.4784 9.20649 31.9546 4.71464 29.6584 2.07186C28.972 1.27442 28.5849 0.923044 27.3613 -0.000246165V30.7574H29.2983V26.2631C30.344 29.0828 31.8644 30.5805 33.9228 30.8496Z" fill="#98002E"/>
<path fill-rule="evenodd" clip-rule="evenodd" d="M41.5975 30.7578V27.8895H38.3779V24.5004H41.5975V21.6333H38.3779V4.22786H41.5975V1.36578H36.4375V30.7578H41.5975Z" fill="#98002E"/>
<path fill-rule="evenodd" clip-rule="evenodd" d="M50.7824 4.22786V1.36578H44.1914V4.22786H46.5197V30.7578H48.4567V4.22786H50.7824Z" fill="#98002E"/>
<path fill-rule="evenodd" clip-rule="evenodd" d="M62.8878 22.2485H60.804L61.8472 14.0684L62.8878 22.2485ZM65.7144 30.6914L61.8472 0.0421568L57.9766 30.6914H59.7618L60.4465 25.1068H63.2453L63.9284 30.6914H65.7144Z" fill="#98002E"/>
<path fill-rule="evenodd" clip-rule="evenodd" d="M82.9704 30.6934V0.482703L79.0129 8.70634L75.0234 0.482703V30.6934H76.9587V10.4645L79.0129 14.5538L81.0368 10.4645V30.6934H82.9704Z" fill="#98002E"/>
<path fill-rule="evenodd" clip-rule="evenodd" d="M91.6478 22.2485H89.5641L90.6072 14.0684L91.6478 22.2485ZM94.4761 30.6914L90.6072 0.0421568L86.7383 30.6914H88.5235L89.2082 25.1068H92.0053L92.6901 30.6914H94.4761Z" fill="#98002E"/>
<path fill-rule="evenodd" clip-rule="evenodd" d="M104.803 30.6934V1.36239H102.869V10.6838L98.2559 0.790469V30.6934H100.191V10.3324L102.869 16.0927V30.6934H104.803Z" fill="#98002E"/>
<path fill-rule="evenodd" clip-rule="evenodd" d="M115.874 25.7244V21.4556H112.185V24.3152H113.939V25.5911C113.939 27.262 113.465 28.1417 112.542 28.1417C111.618 28.1417 111.142 27.262 111.142 25.5911V6.50477C111.142 4.83388 111.618 3.9542 112.542 3.9542C113.465 3.9542 113.939 4.83388 113.939 6.50477V8.1333H115.874V6.37394C115.874 3.29631 114.476 1.09711 112.542 1.09711C110.607 1.09711 109.207 3.29631 109.207 6.37394V25.7244C109.207 28.7597 110.607 31 112.542 31C114.476 31 115.874 28.7597 115.874 25.7244Z" fill="#98002E"/>
<path fill-rule="evenodd" clip-rule="evenodd" d="M125.217 30.6934V27.8363H122.001V24.4484H125.217V21.59H122.001V4.22072H125.217V1.36238H120.068V30.6934H125.217Z" fill="#98002E"/>
<path fill-rule="evenodd" clip-rule="evenodd" d="M133.969 13.4325C133.969 16.3444 133.292 18.7791 131.764 21.5191V5.43063C133.088 7.21491 133.969 10.3449 133.969 13.4325ZM136.324 30.6074V27.7802C134.707 27.2582 133.587 25.9536 132.793 23.6497C135.236 19.6488 135.883 17.4334 135.883 13.3453C135.883 9.25711 134.382 4.82382 132.116 2.21344C131.439 1.4322 131.057 1.08581 129.85 0.169991V30.5202H131.764V26.0844C132.793 28.868 134.294 30.347 136.324 30.6074Z" fill="#98002E"/>
<path fill-rule="evenodd" clip-rule="evenodd" d="M147.97 6.7696L149.587 13.7771H154.001L150.468 17.4491L151.844 23.8262L147.97 20.1068L144.125 23.7776L145.499 17.4491L141.902 13.7771H146.351L147.97 6.7696Z" fill="#98002E"/>
<path fill-rule="evenodd" clip-rule="evenodd" d="M6.06564 6.96225L7.68303 13.9673H12.095L8.56594 17.6418L9.93794 24.0176L6.06564 20.2983L2.22117 23.969L3.59486 17.6418L0 13.9673H4.44488L6.06564 6.96225Z" fill="#98002E"/>
</g>
<defs>
<clipPath id="clip0_34_166">
<rect width="154" height="31" fill="white"/>
</clipPath>
</defs>
</svg>
